<?xml version="1.0" standalone="no"?><!DOCTYPE svg PUBLIC "-//W3C//DTD SVG 1.1//EN" "http://www.w3.org/Graphics/SVG/1.1/DTD/svg11.dtd"><svg t="1754847026240" class="icon" viewBox="0 0 1024 1024" version="1.1" xmlns="http://www.w3.org/2000/svg" p-id="8708" xmlns:xlink="http://www.w3.org/1999/xlink" width="200" height="200"><path d="M669.824 41.28c36.224-9.088 51.328 26.304 38.72 56.384-10.624 25.344-36.352 38.208-55.232 56.448-29.056 28.032-41.28 72.256-50.432 112.32 37.76 8.704 73.728 23.552 106.624 43.968a353.728 353.728 0 0 1 120.704 126.08c29.888 53.056 45.248 113.536 44.8 174.4-1.216 179.776-141.44 331.136-320.96 346.368-200.96 17.088-373.44-136.704-381.248-335.616a350.784 350.784 0 0 1 128.96-285.12c4.288-3.584 8.768-6.976 13.248-10.24-7.936-16.576-15.424-33.344-22.528-50.304a365.76 365.76 0 0 1-25.6-83.2 244.096 244.096 0 0 1-3.072-29.76c-0.448-11.52 0.768-24.832 4.8-36.736 3.2-9.6 8.32-18.368 15.872-24.576a34.496 34.496 0 0 1 48.256 4.672c28.672 34.304 6.912 86.848 5.76 126.336-0.64 23.552 4.736 47.552 12.672 70.016 17.28-9.856 35.584-17.6 50.752-30.848 11.648-10.24 17.472-30.976 32.384-36.224 13.632-4.736 28.16 6.464 39.104 12.8 11.648 6.656 24 8.384 36.672 8.896 9.6 0.384 19.264 0 28.992 0.384 8.448 0.384 16.896 1.088 25.344 2.048 5.888-33.024 11.392-66.048 19.136-98.688 6.784-28.928 16.384-57.664 33.984-81.984 12.672-17.472 31.04-32.512 52.288-37.824z m-53.824 284.608c-117.12 0.192-202.752 105.92-191.552 236.288 11.2 130.368 115.072 236.608 232.32 237.184 117.632 0.512 204.096-105.344 192.704-236.48-11.328-131.072-116.032-237.184-233.472-236.992z m14.912 23.808c49.408 0 98.048 21.504 136.704 60.48a240 240 0 0 1 68.032 146.048c5.504 58.88-11.84 115.456-47.36 155.264a161.408 161.408 0 0 1-116.288 54.592c-50.304 1.536-99.84-18.88-139.52-57.472a238.72 238.72 0 0 1-70.4-147.264c-6.08-59.648 11.008-116.928 47.04-157.12a161.408 161.408 0 0 1 116.48-54.4l5.312-0.128z" fill="#1677FF" p-id="8709"></path></svg>